#!OML:ASF Y:\EmotionMaleHayes\Project 1\Capture day 1\Session 1\Male1.ASF
:FULLY-SPECIFIED
:DEGREES
276
root 12.4031 17.0734 -4.39786 -171.626 2.21868 -198.725
lowerback 21.3338 0.180197 -1.01587
upperback 6.44304 1.68674 4.78544
thorax -5.06027 1.35949 5.28179
lowerneck -18.2119 -13.4158 -9.13804
upperneck 13.9836 -17.0526 4.52076
head 8.44638 -8.12607 0.652715
rclavicle 4.13472e-014 1.11319e-013
rhumerus -13.4564 -21.4901 -53.226
rradius 30.458
rwrist 3.01878
rhand -19.885 -29.7569
rfingers 7.12502
rthumb 6.45079 -59.6386
lclavicle 4.13472e-014 1.11319e-013
lhumerus -6.558 -21.7009 25.1708
lradius 37.1159
lwrist -10.459
lhand -14.3546 -24.9001
lfingers 7.12502
lthumb 11.7871 4.74822
rfemur -28.9459 -4.88353 -19.5125
rtibia 25.594
rfoot -7.28136 -0.634837
rtoes -17.4595
lfemur -15.1086 30.4694 -19.8908
ltibia 38.4012
lfoot 11.157 -19.1899
ltoes 11.1688
277
root 12.6519 16.9342 -4.50587 -172.094 -1.50502 -199.919
lowerback 21.2323 1.55819 -0.726376
upperback 5.98857 1.00983 5.09643
thorax -5.44657 -0.0185437 5.73126
lowerneck -18.5557 -13.2291 -9.38918
upperneck 14.3833 -16.7494 4.74432
head 8.66516 -7.96141 0.769064
rclavicle 1.43125e-014 3.18055e-014
rhumerus -15.2735 -21.0349 -54.7551
rradius 30.4358
rwrist 2.28404
rhand -20.1437 -29.4928
rfingers 7.12502
rthumb 6.20108 -59.382
lclavicle 1.43125e-014 3.18055e-014
lhumerus -3.66687 -20.4027 21.1272
lradius 37.064
lwrist -9.07343
lhand -14.8701 -24.8576
lfingers 7.12502
lthumb 11.29 4.81859
rfemur -27.1846 -8.49102 -19.8301
rtibia 29.2994
rfoot -10.6928 -1.01888
rtoes -34.758
lfemur -15.5879 31.2271 -19.5108
ltibia 41.5979
lfoot 4.98214 -16.3187
ltoes -3.12018
278
root 12.9111 16.7916 -4.61022 -172.658 -4.94587 -200.869
lowerback 21.4286 1.52781 -1.19348
upperback 5.6561 0.984685 5.34392
thorax -5.92037 0.0193603 6.29409
lowerneck -18.8129 -13.0294 -9.47227
upperneck 14.9509 -16.4526 4.66365
head 8.88384 -7.82765 0.767005
rclavicle -2.8625e-014 -5.08889e-014
rhumerus -16.9585 -21.559 -56.2647
rradius 30.4038
rwrist 1.73691
rhand -19.8992 -29.3089
rfingers 7.12502
rthumb 6.43717 -59.1911
lclavicle -2.8625e-014 -5.08889e-014
lhumerus -1.43252 -17.2926 18.3762
lradius 37.1596
lwrist -8.86055
lhand -15.9635 -24.7765
lfingers 7.12502
lthumb 10.2354 4.95453
rfemur -25.7569 -11.4843 -20.1496
rtibia 33.1431
rfoot -13.0106 -1.00372
rtoes -33.2759
lfemur -15.71 32.1109 -18.6728
ltibia 44.3528
lfoot 0.250628 -12.0013
ltoes -10.6089
279
root 13.1549 16.6385 -4.69476 -172.991 -8.56041 -201.693
lowerback 21.5343 1.29103 -1.39094
upperback 5.29613 0.73726 5.49047
thorax -6.34282 -0.0500743 6.64867
lowerneck -19.1539 -12.6686 -8.95861
upperneck 15.3165 -15.9791 4.2293
head 8.9535 -7.61699 0.602743
rclavicle -5.725e-014 -3.81667e-014
rhumerus -18.1596 -21.8676 -58.1136
rradius 30.3349
rwrist 0.390585
rhand -19.9774 -29.2964
rfingers 7.12502
rthumb 6.36163 -59.1808
lclavicle -5.725e-014 -3.81667e-014
lhumerus 0.590808 -13.7158 15.8443
lradius 37.5035
lwrist -7.34414
lhand -16.9474 -23.5127
lfingers 7.12502
lthumb 9.28609 6.26278
rfemur -25.5101 -13.4786 -20.2899
rtibia 38.599
rfoot -15.6781 -2.08256
rtoes -30.9608
lfemur -16.2618 32.4387 -18.0034
ltibia 46.6439
lfoot -3.5822 -7.05036
ltoes -14.6421
280
root 13.4196 16.4861 -4.77827 -173.785 -11.3735 -201.969
lowerback 22.0536 1.33262 -1.72794
upperback 5.18787 0.756517 5.77503
thorax -6.74292 -0.0202986 7.17987
lowerneck -19.1681 -12.2828 -8.79369
upperneck 14.9348 -15.4399 4.3575
head 8.78994 -7.3456 0.719753
rclavicle -4.29375e-014 -9.54166e-014
rhumerus -18.6237 -21.9252 -60.3335
rradius 30.225
rwrist -1.5749
rhand -19.9664 -29.4802
rfingers 7.12502
rthumb 6.37229 -59.3643
lclavicle -4.29375e-014 -9.54166e-014
lhumerus 1.68663 -9.81113 13.4706
lradius 38.3627
lwrist -5.2187
lhand -18.4849 -22.0939
lfingers 7.12502
lthumb 7.80236 7.74215
rfemur -24.9403 -13.9632 -19.8229
rtibia 42.5391
rfoot -17.752 -3.47035
rtoes -27.7819
lfemur -15.8813 33.3216 -16.2577
ltibia 48.1497
lfoot -6.44768 -1.78579
ltoes -20.6553
281
root 13.6545 16.3493 -4.87498 -174.602 -14.1521 -201.347
lowerback 22.1393 1.22483 -1.15577
upperback 5.09616 0.766068 6.39998
thorax -6.88852 -0.0280882 7.55406
lowerneck -18.8675 -11.8989 -9.2791
upperneck 14.4342 -14.8052 4.68425
head 8.59479 -7.05348 1.02343
rclavicle 3.97569e-014 6.67916e-014
rhumerus -18.6841 -21.8114 -62.3996
rradius 30.1633
rwrist -3.58963
rhand -19.7805 -29.4803
rfingers 7.12502
rthumb 6.55173 -59.359
lclavicle 3.97569e-014 6.67916e-014
lhumerus 2.87896 -5.19877 12.2312
lradius 38.5953
lwrist -3.44241
lhand -19.9804 -20.3687
lfingers 7.12502
lthumb 6.35878 9.5159
rfemur -24.584 -14.8495 -18.2694
rtibia 46.4791
rfoot -19.8041 -5.305
rtoes -29.2568
lfemur -15.619 34.0022 -13.7106
ltibia 49.3234
lfoot -7.98125 1.16931
ltoes -19.7118
282
root 13.8531 16.2331 -4.98975 -175.258 -16.4796 -200.653
lowerback 21.7689 1.2396 -0.458649
upperback 4.99957 0.967709 6.98922
thorax -6.82515 0.056452 7.74694
lowerneck -18.6931 -11.577 -9.6099
upperneck 14.1354 -14.2553 4.70963
head 8.45431 -6.81813 1.18069
rclavicle 8.26944e-014 2.41722e-013
rhumerus -18.6602 -21.9099 -64.2723
rradius 30.16
rwrist -5.27978
rhand -20.8803 -29.6861
rfingers 7.12502
rthumb 5.48989 -59.595
lclavicle 8.26944e-014 2.41722e-013
lhumerus 3.69797 -1.423 10.789
lradius 39.5295
lwrist 0.472416
lhand -20.735 -18.7177
lfingers 7.12502
lthumb 5.63023 11.1875
rfemur -23.9644 -15.5662 -16.8774
rtibia 49.1702
rfoot -21.3984 -6.6306
rtoes -30.0399
lfemur -15.4301 35.039 -11.2635
ltibia 50.3851
lfoot -8.92875 2.78489
ltoes -15.1847
